<?xml version="1.0" encoding="UTF-8" standalone="no"?> <svg xmlns="http://www.w3.org/2000/svg" viewBox="0 0 64 64"><g id="Layer_23" data-name="Layer 23"><path d="M38.965,19.208c4-9-7-14-13-7-6-7-17-2-13,7,2.916,6.56,13,13,13,13S36.049,25.768,38.965,19.208Z" style="fill:#9bc9ff"/><path d="M36.536,35.876a2,2,0,0,0,.732,2.732l3.464,2a2,2,0,0,0,2.732-.732l1-1.732-6.928-4Z" style="fill:#9bc9ff"/><path d="M60,3.235a2.127,2.127,0,0,0-2.838.666L40.536,28.947l6.928,4L60.842,6.026A2.129,2.129,0,0,0,60,3.235Z" style="fill:#9bc9ff"/><rect x="39.5" y="29.545" width="6" height="8" transform="translate(-7.801 53.579) rotate(-60)" style="fill:#9bc9ff"/><path d="M43,56H9a1,1,0,0,1,0-2H43a1,1,0,0,1,0,2Z" style="fill:#1e81ce"/><path d="M25.427,33.05a.995.995,0,0,0,1.076,0c.423-.269,10.372-6.678,13.376-13.436,1.859-4.182.871-8.266-2.516-10.406a9.3,9.3,0,0,0-11.4,1.542,9.3,9.3,0,0,0-11.4-1.542c-3.387,2.14-4.375,6.224-2.516,10.406C15.055,26.372,25.005,32.781,25.427,33.05ZM15.636,10.9a6.641,6.641,0,0,1,3.535-.987,7.93,7.93,0,0,1,6.035,2.946,1.033,1.033,0,0,0,1.519,0c2.922-3.409,7.026-3.566,9.57-1.959,1.989,1.256,3.495,3.992,1.757,7.9-2.383,5.36-9.991,10.785-12.087,12.206-2.095-1.42-9.7-6.84-12.086-12.206C12.141,14.891,13.647,12.155,15.636,10.9Z" style="fill:#1e81ce"/><path d="M60.5,2.37a3.12,3.12,0,0,0-4.17.98L50,12.88V3a1,1,0,0,0-1-1H3A1,1,0,0,0,2,3V61a1,1,0,0,0,1,1H49a1,1,0,0,0,1-1V30.09L61.74,6.47A3.131,3.131,0,0,0,60.5,2.37ZM48,60H4V4H48V15.89l-8.3,12.5c0,.01-4.03,6.99-4.03,6.99a2.956,2.956,0,0,0-.3,2.27,3.14,3.14,0,0,0,.62,1.17l-.01.01a3.379,3.379,0,0,1-3.61,1.63,1.02,1.02,0,0,0-.87.23,1.039,1.039,0,0,0-.33.84L32,50.1a1.046,1.046,0,0,0,.5.77,1,1,0,0,0,.91.04l7.83-3.56a1.009,1.009,0,0,0,.57-.7,1.041,1.041,0,0,0-.23-.88,3.379,3.379,0,0,1-.4-3.94l.01-.02a3.327,3.327,0,0,0,.54.07,3.015,3.015,0,0,0,2.6-1.5L48,34.02ZM39.34,46.02,35.43,47.8l1.94-3.36a1,1,0,0,0-1.74-1L33.69,46.8l-.41-4.28a5.366,5.366,0,0,0,4.35-2.55l1.74,1.01A5.356,5.356,0,0,0,39.34,46.02Zm-1.57-8.28a1,1,0,0,1-.5-.87.947.947,0,0,1,.13-.49l.5-.87,5.2,3-.5.87a1.007,1.007,0,0,1-1.37.36Zm1.13-3.96,2-3.47,5.2,3-2,3.47ZM59.95,5.58,47.04,31.55l-5.08-2.94L57.99,4.45a1.134,1.134,0,0,1,1.96,1.13Z" style="fill:#1e81ce"/><path d="M28,38H9a1,1,0,0,0,0,2H28a1,1,0,0,0,0-2Z" style="fill:#1e81ce"/><path d="M28,42H9a1,1,0,0,0,0,2H28a1,1,0,0,0,0-2Z" style="fill:#1e81ce"/><path d="M28,46H9a1,1,0,0,0,0,2H28a1,1,0,0,0,0-2Z" style="fill:#1e81ce"/><path d="M28,50H9a1,1,0,0,0,0,2H28a1,1,0,0,0,0-2Z" style="fill:#1e81ce"/></g></svg>